# xmcd
#
# Track frame offsets: 
#        150
#        10365
#        22784
#        40613
#        59281
#        76786
#        89007
#        101839
#        115760
#        129945
#        152572
#        165462
#        173499
#        183949
#        204976
#
# Disc length: 3003 seconds
#
# Revision: 0
# Processed by: cddbd v1.5.2PL0 Copyright (c) Steve Scherf et al.
# Submitted via: ExactAudioCopyFreeDBPlugin 1.0
#
DISCID=a60bb90f
DTITLE=Various Artist - Faith, Hope and Country - Peace In The Valley -
DTITLE=Disc 1
DYEAR=2016
DGENRE=Country
TTITLE0=Willie Nelson - What A Wonderful World
TTITLE1=Johnny Cash with June Carter Cash - Far Side Banks Of Jordan
TTITLE2=Diamond Rio - I Believe
TTITLE3=Alabama - Angels Among Us
TTITLE4=Pam Tillis - Morning Has Broken
TTITLE5=Brenda Lee feat. Charlie Daniels - This Little Light Of Mine
TTITLE6=Hank Snow the Singing Ranger and His Rainbow Ranch Boys - Thes
TTITLE6=e Hands
TTITLE7=Dolly Parton - Coat Of Many Colors
TTITLE8=Johnny Cash - Ragged Old Flag
TTITLE9=Ray Price - Danny Boy
TTITLE10=The Browns - The Three Bells
TTITLE11=The Statler Brothers - This Ole House
TTITLE12=Patsy Cline - He Will Do For You
TTITLE13=Willie Nelson - Uncloudy Day
TTITLE14=Elvis Presley - An American Trilogy
EXTD=
EXTT0=
EXTT1=
EXTT2=
EXTT3=
EXTT4=
EXTT5=
EXTT6=
EXTT7=
EXTT8=
EXTT9=
EXTT10=
EXTT11=
EXTT12=
EXTT13=
EXTT14=
PLAYORDER=
